<svg width="434" height="297" viewBox="0 0 434 297" fill="none" xmlns="http://www.w3.org/2000/svg">
<path fill-rule="evenodd" clip-rule="evenodd" d="M293.057 13.3681C282.724 3.30359 268.353 -1.47454 254.053 0.40008C240.128 2.36018 227.759 10.3158 220.197 22.1741C215.881 28.8233 213.251 36.4257 212.536 44.3216L214.448 42.4062C196.753 40.8758 178.95 43.6597 162.566 50.5196C148.807 57.0976 139.087 69.9362 136.487 84.9666C135.131 92.9438 136.823 101.139 141.227 107.927L142.5 104.801C120.897 110.285 102.955 125.289 93.7327 145.585C89.6021 155.88 88.8784 167.229 91.6678 177.966C94.3903 187.83 100.703 196.319 109.366 201.763C118.599 207.849 130.068 209.488 140.636 206.233L137.706 204.57C144.03 223.283 160.202 236.949 179.704 240.059C201.703 244.425 224.529 241.377 244.612 231.392C256.622 225.742 267.53 217.997 276.824 208.522L275.083 209.244C287.301 209.999 299.553 208.488 311.221 204.787C322.013 201.566 332.253 196.725 341.591 190.428C350.236 184.732 357.479 177.152 362.777 168.256C367.588 159.878 369.703 150.22 368.833 140.597C368.132 129.941 362.893 120.097 354.445 113.565V117.944C366.324 108.88 372.878 94.47 371.905 79.5577C370.765 68.0891 365.09 57.5519 356.143 50.2898C347.195 43.0277 335.718 39.6429 324.263 40.8884L326.053 45.2131C334.119 37.4795 336.322 25.4461 331.519 15.3558C326.475 5.54316 315.403 0.420857 304.661 2.92985C298.742 4.10066 293.463 7.41674 289.837 12.2418C289.178 13.3894 289.562 14.8538 290.699 15.5305C291.849 16.1668 293.295 15.7876 293.985 14.6692C299.631 8.04919 308.776 5.60249 316.972 8.51943C325.246 11.7486 330.181 20.2801 328.855 29.0647C328.371 33.9033 326.094 38.3855 322.472 41.6292C321.771 42.3617 321.57 43.439 321.957 44.3755C322.345 45.3121 323.249 45.9312 324.262 45.9539C337.545 44.4453 350.685 49.7825 359.156 60.1267C367.231 70.4194 369.294 84.2042 364.584 96.4107C362.171 103.275 357.747 109.253 351.887 113.565C351.218 113.969 350.77 114.656 350.67 115.432C350.57 116.207 350.83 116.986 351.375 117.546C365.396 130.011 368.216 150.85 358.01 166.594C352.645 175.242 345.335 182.518 336.664 187.844C327.131 193.916 316.713 198.47 305.783 201.342C299.876 202.957 293.826 203.991 287.718 204.432C284.756 204.624 281.782 204.606 278.817 204.51C277.365 204.279 275.889 204.243 274.427 204.402C273.145 205.08 272.034 206.04 271.175 207.208C263.481 214.662 254.712 220.917 245.161 225.766C226.985 235.454 206.238 239.224 185.817 236.548C168.261 234.923 152.674 224.642 144.267 209.142C143.446 207.254 142.787 205.299 142.298 203.299C141.938 202.039 140.634 201.299 139.368 201.637C121.613 206.615 103.034 197 96.8411 179.628C93.5627 169.971 93.5733 159.5 96.8713 149.849C100.139 140.22 105.958 131.658 113.707 125.075C122.441 117.651 132.635 112.144 143.631 108.909C144.264 108.726 144.779 108.263 145.027 107.652C145.275 107.041 145.23 106.35 144.904 105.777C138.134 94.0813 139.128 79.4478 147.418 68.776C156.879 56.6161 170.981 48.9521 186.328 47.6284C195.645 46.353 205.054 45.8854 214.45 46.231C215.496 46.2094 216.339 45.3676 216.363 44.3216C217.669 31.4409 224.373 19.7176 234.811 12.0611C245.444 4.48846 258.837 1.89601 271.527 4.95366C278.903 6.61641 285.784 9.9944 291.611 14.8137C292.016 15.1738 292.631 15.1557 293.015 14.7724C293.398 14.3891 293.416 13.7734 293.056 13.3681H293.057Z" fill="#E7C4B2"/>
<g filter="url(#filter0_d_147_413)">
<rect x="80" y="49" width="274" height="176" rx="6" fill="white"/>
</g>
<g filter="url(#filter1_d_147_413)">
<rect x="64" y="41" width="306" height="176" rx="6" fill="white"/>
</g>
<g filter="url(#filter2_d_147_413)">
<rect x="48" y="33" width="338" height="176" rx="6" fill="white"/>
</g>
<circle cx="92" cy="77" r="20" fill="#F7CC47"/>
<rect x="72" y="111" width="75" height="14" rx="2" fill="#F5DED1"/>
<rect x="72" y="133" width="126" height="6" rx="3" fill="#F5DED1"/>
<path fill-rule="evenodd" clip-rule="evenodd" d="M289.5 109.67C282.456 110.897 275.32 111.52 268.169 111.531V111.53C267.428 111.542 267.211 112.747 267.989 112.864C276.225 113.974 284.593 113.629 292.709 111.845C307.131 108.859 320.693 102.667 332.388 93.729C338.279 89.2616 343.639 84.1352 348.362 78.4502C350.869 75.3734 353.184 72.1495 355.295 68.7971L355.311 68.7192C355.728 66.641 356.151 64.5659 356.588 62.4933C356.873 62.4539 357.158 62.4172 357.444 62.383C358.916 62.212 359.002 59.9878 357.444 60.021C357.334 60.0227 357.224 60.0251 357.114 60.0279C357.213 59.5675 357.313 59.1072 357.415 58.647L360.292 59.857C358.783 62.9246 357.115 65.9086 355.295 68.7971L354.361 73.4845C354.504 73.2424 354.766 73.0874 355.057 73.0874C355.413 73.0874 355.727 73.3194 355.831 73.659C356.125 74.8426 356.29 76.0179 356.458 77.2071C356.514 77.6076 356.571 78.0098 356.633 78.4143L353.41 78.8509C353.436 79.5523 353.912 80.1829 354.621 80.3781C355.476 80.6133 356.364 80.1326 356.633 79.2893C357.112 77.6398 357.463 75.9561 357.685 74.253L358.622 69.4075C359.265 66.1053 359.874 62.7962 360.451 59.4804C360.642 58.7229 360.256 57.9387 359.539 57.6269C358.815 57.3166 357.973 57.5922 357.574 58.2699C357.301 58.8635 357.02 59.4536 356.733 60.0401C354.657 60.1183 352.593 60.3933 350.568 60.8615C349.401 61.1458 348.254 61.5096 347.136 61.9504C346.146 62.2017 345.251 62.7345 344.557 63.4842C344.399 63.7565 344.376 64.0866 344.495 64.3781C344.614 64.6697 344.861 64.8898 345.164 64.9742C346.148 65.0141 347.128 64.8237 348.026 64.4182C348.965 64.1309 349.917 63.8863 350.871 63.6413C350.951 63.6209 351.03 63.6006 351.109 63.5802C352.519 63.2134 353.945 62.9115 355.382 62.6755C352.346 68.3437 348.652 73.6419 344.371 78.4588C334.891 89.2339 323.132 97.7733 309.943 103.46C303.383 106.286 296.525 108.369 289.5 109.67ZM353.896 75.5242C354.016 74.9352 354.152 74.3494 354.304 73.7673L354.361 73.4845C354.329 73.5386 354.303 73.597 354.284 73.659C354.126 74.2819 354.003 74.9026 353.896 75.5242ZM353.896 75.5242C353.672 76.6244 353.503 77.7355 353.392 78.8534L353.41 78.8509C353.405 78.7073 353.419 78.5607 353.453 78.4143C353.515 78.0215 353.572 77.631 353.63 77.242C353.714 76.667 353.798 76.0952 353.896 75.5242Z" fill="#EF6D58"/>
<rect x="72" y="177" width="289" height="6" rx="3" fill="#F4E4FF"/>
<rect x="72" y="177" width="113" height="6" rx="3" fill="#B550F8"/>
<defs>
<filter id="filter0_d_147_413" x="32" y="25" width="370" height="272" filterUnits="userSpaceOnUse" color-interpolation-filters="sRGB">
<feFlood flood-opacity="0" result="BackgroundImageFix"/>
<feColorMatrix in="SourceAlpha" type="matrix" values="0 0 0 0 0 0 0 0 0 0 0 0 0 0 0 0 0 0 127 0" result="hardAlpha"/>
<feOffset dy="24"/>
<feGaussianBlur stdDeviation="24"/>
<feColorMatrix type="matrix" values="0 0 0 0 0.333333 0 0 0 0 0.117647 0 0 0 0 0 0 0 0 0.04 0"/>
<feBlend mode="normal" in2="BackgroundImageFix" result="effect1_dropShadow_147_413"/>
<feBlend mode="normal" in="SourceGraphic" in2="effect1_dropShadow_147_413" result="shape"/>
</filter>
<filter id="filter1_d_147_413" x="16" y="17" width="402" height="272" filterUnits="userSpaceOnUse" color-interpolation-filters="sRGB">
<feFlood flood-opacity="0" result="BackgroundImageFix"/>
<feColorMatrix in="SourceAlpha" type="matrix" values="0 0 0 0 0 0 0 0 0 0 0 0 0 0 0 0 0 0 127 0" result="hardAlpha"/>
<feOffset dy="24"/>
<feGaussianBlur stdDeviation="24"/>
<feColorMatrix type="matrix" values="0 0 0 0 0.333333 0 0 0 0 0.117647 0 0 0 0 0 0 0 0 0.04 0"/>
<feBlend mode="normal" in2="BackgroundImageFix" result="effect1_dropShadow_147_413"/>
<feBlend mode="normal" in="SourceGraphic" in2="effect1_dropShadow_147_413" result="shape"/>
</filter>
<filter id="filter2_d_147_413" x="0" y="9" width="434" height="272" filterUnits="userSpaceOnUse" color-interpolation-filters="sRGB">
<feFlood flood-opacity="0" result="BackgroundImageFix"/>
<feColorMatrix in="SourceAlpha" type="matrix" values="0 0 0 0 0 0 0 0 0 0 0 0 0 0 0 0 0 0 127 0" result="hardAlpha"/>
<feOffset dy="24"/>
<feGaussianBlur stdDeviation="24"/>
<feColorMatrix type="matrix" values="0 0 0 0 0.333333 0 0 0 0 0.117647 0 0 0 0 0 0 0 0 0.04 0"/>
<feBlend mode="normal" in2="BackgroundImageFix" result="effect1_dropShadow_147_413"/>
<feBlend mode="normal" in="SourceGraphic" in2="effect1_dropShadow_147_413" result="shape"/>
</filter>
</defs>
</svg>
